<svg version="1.1" xmlns="http://www.w3.org/2000/svg" width="600" height="500"><defs><clipPath id="sBPeVMpdKfhV"><path fill="none" stroke="none" d="M 53.5 5.5 L 595.5 5.5 L 595.5 382.5 L 53.5 382.5 L 53.5 5.5"/></clipPath><clipPath id="mXZOJyHsrtsT"><path fill="none" stroke="none" d="M 53.5 5.5 L 595.5 5.5 L 595.5 382.5 L 53.5 382.5 L 53.5 5.5"/></clipPath><clipPath id="bLhaTHmecIzt"><path fill="none" stroke="none" d="M 53.5 5.5 L 595.5 5.5 L 595.5 382.5 L 53.5 382.5 L 53.5 5.5"/></clipPath><clipPath id="XxCBJfPKPxum"><path fill="none" stroke="none" d="M 53.5 5.5 L 595.5 5.5 L 595.5 382.5 L 53.5 382.5 L 53.5 5.5"/></clipPath><clipPath id="zSoqrgVXWldK"><path fill="none" stroke="none" d="M 53.5 5.5 L 595.5 5.5 L 595.5 382.5 L 53.5 382.5 L 53.5 5.5"/></clipPath></defs><path fill="rgb(255,255,255)" stroke="none" paint-order="stroke" d="M 0.5 0.5 L 600.5 0.5 L 600.5 500.5 L 0.5 500.5 L 0.5 0.5" fill-opacity="1"/><rect fill="#FFFFFF" stroke="none" x="53" y="5" width="542" height="377" transform="matrix(1, 0, 0, 1, 0.5, 0.5)"/><path fill="rgb(255,255,255)" stroke="none" paint-order="stroke" d="M 53.5 5.5 L 595.5 5.5 L 595.5 382.5 L 53.5 382.5 L 53.5 5.5" fill-opacity="1"/><path fill="none" stroke="rgb(229,229,229)" paint-order="fill" d="M 53.5 5.5 L 595.5 5.5 L 595.5 382.5 L 53.5 382.5 L 53.5 5.5" stroke-opacity="1" stroke-linejoin="bevel" stroke-miterlimit="10" stroke-dasharray=""/><path fill="none" stroke="rgb(0,0,0)" paint-order="fill" d="M 53.5 371.5 L 595.5 371.5 M 53.5 360.5 L 595.5 360.5 M 53.5 350.5 L 595.5 350.5 M 53.5 339.5 L 595.5 339.5 M 53.5 328.5 L 595.5 328.5 M 53.5 317.5 L 595.5 317.5 M 53.5 307.5 L 595.5 307.5 M 53.5 296.5 L 595.5 296.5 M 53.5 285.5 L 595.5 285.5 M 53.5 274.5 L 595.5 274.5 M 53.5 264.5 L 595.5 264.5 M 53.5 253.5 L 595.5 253.5 M 53.5 242.5 L 595.5 242.5 M 53.5 231.5 L 595.5 231.5 M 53.5 220.5 L 595.5 220.5 M 53.5 210.5 L 595.5 210.5 M 53.5 199.5 L 595.5 199.5 M 53.5 188.5 L 595.5 188.5 M 53.5 177.5 L 595.5 177.5 M 53.5 167.5 L 595.5 167.5 M 53.5 156.5 L 595.5 156.5 M 53.5 145.5 L 595.5 145.5 M 53.5 134.5 L 595.5 134.5 M 53.5 123.5 L 595.5 123.5 M 53.5 113.5 L 595.5 113.5 M 53.5 102.5 L 595.5 102.5 M 53.5 91.5 L 595.5 91.5 M 53.5 80.5 L 595.5 80.5 M 53.5 70.5 L 595.5 70.5 M 53.5 59.5 L 595.5 59.5 M 53.5 48.5 L 595.5 48.5 M 53.5 37.5 L 595.5 37.5 M 53.5 27.5 L 595.5 27.5 M 53.5 16.5 L 595.5 16.5" stroke-opacity="0.10196078431372549" stroke-linejoin="bevel" stroke-miterlimit="10" stroke-dasharray="" clip-path="url(#mXZOJyHsrtsT)"/><path fill="none" stroke="rgb(229,229,229)" paint-order="fill" d="M 53.5 328.5 L 595.5 328.5 M 53.5 274.5 L 595.5 274.5 M 53.5 220.5 L 595.5 220.5 M 53.5 167.5 L 595.5 167.5 M 53.5 113.5 L 595.5 113.5 M 53.5 59.5 L 595.5 59.5" stroke-opacity="1" stroke-linejoin="bevel" stroke-miterlimit="10" stroke-dasharray="" clip-path="url(#mXZOJyHsrtsT)"/><path fill="rgb(200,231,255)" stroke="rgb(200,231,255)" paint-order="fill" d="M 55.2371826171875 328.6428527832031 L 86.50640869140625 328.6428527832031 L 86.50640869140625 382.5 L 55.2371826171875 382.5 L 55.2371826171875 328.6428527832031" fill-opacity="1" clip-path="url(#bLhaTHmecIzt)" stroke-opacity="1" stroke-linejoin="bevel" stroke-miterlimit="10" stroke-dasharray=""/><path fill="rgb(200,231,255)" stroke="rgb(200,231,255)" paint-order="fill" d="M 173.36538696289062 86.28571319580078 L 204.63461303710938 86.28571319580078 L 204.63461303710938 382.5 L 173.36538696289062 382.5 L 173.36538696289062 86.28571319580078" fill-opacity="1" clip-path="url(#bLhaTHmecIzt)" stroke-opacity="1" stroke-linejoin="bevel" stroke-miterlimit="10" stroke-dasharray=""/><path fill="rgb(200,231,255)" stroke="rgb(200,231,255)" paint-order="fill" d="M 291.49359130859375 140.14285278320312 L 322.7628173828125 140.14285278320312 L 322.7628173828125 382.5 L 291.49359130859375 382.5 L 291.49359130859375 140.14285278320312" fill-opacity="1" clip-path="url(#bLhaTHmecIzt)" stroke-opacity="1" stroke-linejoin="bevel" stroke-miterlimit="10" stroke-dasharray=""/><path fill="rgb(200,231,255)" stroke="rgb(200,231,255)" paint-order="fill" d="M 409.6217956542969 194 L 440.8910217285156 194 L 440.8910217285156 382.5 L 409.6217956542969 382.5 L 409.6217956542969 194" fill-opacity="1" clip-path="url(#bLhaTHmecIzt)" stroke-opacity="1" stroke-linejoin="bevel" stroke-miterlimit="10" stroke-dasharray=""/><path fill="rgb(200,231,255)" stroke="rgb(200,231,255)" paint-order="fill" d="M 527.75 382.5 L 559.019287109375 382.5 L 559.019287109375 382.5 L 527.75 382.5 L 527.75 382.5" fill-opacity="1" clip-path="url(#bLhaTHmecIzt)" stroke-opacity="1" stroke-linejoin="bevel" stroke-miterlimit="10" stroke-dasharray=""/><path fill="rgb(222,170,255)" stroke="rgb(222,170,255)" paint-order="fill" d="M 89.98077392578125 328.6428527832031 L 121.25 328.6428527832031 L 121.25 382.5 L 89.98077392578125 382.5 L 89.98077392578125 328.6428527832031" fill-opacity="1" clip-path="url(#XxCBJfPKPxum)" stroke-opacity="1" stroke-linejoin="bevel" stroke-miterlimit="10" stroke-dasharray=""/><path fill="rgb(222,170,255)" stroke="rgb(222,170,255)" paint-order="fill" d="M 208.10897827148438 140.14285278320312 L 239.37820434570312 140.14285278320312 L 239.37820434570312 382.5 L 208.10897827148438 382.5 L 208.10897827148438 140.14285278320312" fill-opacity="1" clip-path="url(#XxCBJfPKPxum)" stroke-opacity="1" stroke-linejoin="bevel" stroke-miterlimit="10" stroke-dasharray=""/><path fill="rgb(222,170,255)" stroke="rgb(222,170,255)" paint-order="fill" d="M 326.2371826171875 59.35714340209961 L 357.50640869140625 59.35714340209961 L 357.50640869140625 382.5 L 326.2371826171875 382.5 L 326.2371826171875 59.35714340209961" fill-opacity="1" clip-path="url(#XxCBJfPKPxum)" stroke-opacity="1" stroke-linejoin="bevel" stroke-miterlimit="10" stroke-dasharray=""/><path fill="rgb(222,170,255)" stroke="rgb(222,170,255)" paint-order="fill" d="M 444.3653869628906 274.78570556640625 L 475.6346130371094 274.78570556640625 L 475.6346130371094 382.5 L 444.3653869628906 382.5 L 444.3653869628906 274.78570556640625" fill-opacity="1" clip-path="url(#XxCBJfPKPxum)" stroke-opacity="1" stroke-linejoin="bevel" stroke-miterlimit="10" stroke-dasharray=""/><path fill="rgb(222,170,255)" stroke="rgb(222,170,255)" paint-order="fill" d="M 562.4935913085938 355.5714416503906 L 593.7628784179688 355.5714416503906 L 593.7628784179688 382.5 L 562.4935913085938 382.5 L 562.4935913085938 355.5714416503906" fill-opacity="1" clip-path="url(#XxCBJfPKPxum)" stroke-opacity="1" stroke-linejoin="bevel" stroke-miterlimit="10" stroke-dasharray=""/><path fill="none" stroke="rgb(0,0,0)" paint-order="fill" d="M 53.5 382.5 L 595.5 382.5" stroke-opacity="1" stroke-linejoin="bevel" stroke-miterlimit="10" stroke-dasharray=""/><path fill="none" stroke="rgb(0,0,0)" paint-order="fill" d="M 70.5 388.5 L 70.5 380.5 M 105.5 388.5 L 105.5 380.5 M 189.5 388.5 L 189.5 380.5 M 223.5 388.5 L 223.5 380.5 M 307.5 388.5 L 307.5 380.5 M 341.5 388.5 L 341.5 380.5 M 425.5 388.5 L 425.5 380.5 M 460.5 388.5 L 460.5 380.5 M 543.5 388.5 L 543.5 380.5 M 578.5 388.5 L 578.5 380.5" stroke-opacity="1" stroke-linejoin="bevel" stroke-miterlimit="10" stroke-dasharray=""/><path fill="none" stroke="rgb(0,0,0)" paint-order="fill" d="" stroke-opacity="1" stroke-linejoin="bevel" stroke-miterlimit="10" stroke-dasharray=""/><text fill="rgb(128,128,128)" stroke="none" font-family="helvetica" font-size="13.5px" font-style="normal" font-weight="bold" text-decoration="normal" x="15.74359130859375" y="398" text-anchor="start" dominant-baseline="alphabetic" transform="matrix(6.123233995736766e-17, -1, 1, 6.123233995736766e-17, -304.75640869140625, 481.24359130859375)" fill-opacity="1">0.56 - 0.881</text><text fill="rgb(128,128,128)" stroke="none" font-family="helvetica" font-size="13.5px" font-style="normal" font-weight="bold" text-decoration="normal" x="126.37179565429688" y="398" text-anchor="start" dominant-baseline="alphabetic" transform="matrix(6.123233995736766e-17, -1, 1, 6.123233995736766e-17, -186.62820434570312, 599.3717956542969)" fill-opacity="1">0.882 - 1.203</text><text fill="rgb(128,128,128)" stroke="none" font-family="helvetica" font-size="13.5px" font-style="normal" font-weight="bold" text-decoration="normal" x="244.5" y="398" text-anchor="start" dominant-baseline="alphabetic" transform="matrix(6.123233995736766e-17, -1, 1, 6.123233995736766e-17, -68.5, 717.5)" fill-opacity="1">1.204 - 1.525</text><text fill="rgb(128,128,128)" stroke="none" font-family="helvetica" font-size="13.5px" font-style="normal" font-weight="bold" text-decoration="normal" x="362.6282043457031" y="398" text-anchor="start" dominant-baseline="alphabetic" transform="matrix(6.123233995736766e-17, -1, 1, 6.123233995736766e-17, 49.628204345703125, 835.6282043457031)" fill-opacity="1">1.526 - 1.847</text><text fill="rgb(128,128,128)" stroke="none" font-family="helvetica" font-size="13.5px" font-style="normal" font-weight="bold" text-decoration="normal" x="526.5064086914062" y="398" text-anchor="start" dominant-baseline="alphabetic" transform="matrix(6.123233995736766e-17, -1, 1, 6.123233995736766e-17, 167.7564086914062, 953.7564086914062)" fill-opacity="1">1.848</text><text fill="rgb(68,68,68)" stroke="none" font-family="helvetica" font-size="13px" font-style="normal" font-weight="normal" text-decoration="normal" x="237.06666564941406" y="493.5" text-anchor="start" dominant-baseline="alphabetic" transform="matrix(1, 0, 0, 1, 0.5, 0.5)" fill-opacity="1">Vessel percentage ranges (%)</text><path fill="none" stroke="rgb(211,211,211)" paint-order="fill" d="M 147.5 464.5 L 147.5 385.5 M 265.5 464.5 L 265.5 385.5 M 383.5 464.5 L 383.5 385.5 M 501.5 464.5 L 501.5 385.5" stroke-opacity="1" stroke-linejoin="bevel" stroke-miterlimit="10" stroke-width="2" stroke-dasharray=""/><path fill="none" stroke="rgb(0,0,0)" paint-order="fill" d="M 53.5 382.5 L 53.5 5.5" stroke-opacity="1" stroke-linejoin="bevel" stroke-miterlimit="10" stroke-dasharray=""/><path fill="none" stroke="rgb(0,0,0)" paint-order="fill" d="M 47.5 382.5 L 55.5 382.5 M 47.5 328.5 L 55.5 328.5 M 47.5 274.5 L 55.5 274.5 M 47.5 220.5 L 55.5 220.5 M 47.5 167.5 L 55.5 167.5 M 47.5 113.5 L 55.5 113.5 M 47.5 59.5 L 55.5 59.5 M 47.5 5.5 L 55.5 5.5" stroke-opacity="1" stroke-linejoin="bevel" stroke-miterlimit="10" stroke-dasharray=""/><path fill="none" stroke="rgb(0,0,0)" paint-order="fill" d="M 49.5 382.5 L 53.5 382.5 M 49.5 371.5 L 53.5 371.5 M 49.5 360.5 L 53.5 360.5 M 49.5 350.5 L 53.5 350.5 M 49.5 339.5 L 53.5 339.5 M 49.5 328.5 L 53.5 328.5 M 49.5 317.5 L 53.5 317.5 M 49.5 307.5 L 53.5 307.5 M 49.5 296.5 L 53.5 296.5 M 49.5 285.5 L 53.5 285.5 M 49.5 274.5 L 53.5 274.5 M 49.5 264.5 L 53.5 264.5 M 49.5 253.5 L 53.5 253.5 M 49.5 242.5 L 53.5 242.5 M 49.5 231.5 L 53.5 231.5 M 49.5 220.5 L 53.5 220.5 M 49.5 210.5 L 53.5 210.5 M 49.5 199.5 L 53.5 199.5 M 49.5 188.5 L 53.5 188.5 M 49.5 177.5 L 53.5 177.5 M 49.5 167.5 L 53.5 167.5 M 49.5 156.5 L 53.5 156.5 M 49.5 145.5 L 53.5 145.5 M 49.5 134.5 L 53.5 134.5 M 49.5 123.5 L 53.5 123.5 M 49.5 113.5 L 53.5 113.5 M 49.5 102.5 L 53.5 102.5 M 49.5 91.5 L 53.5 91.5 M 49.5 80.5 L 53.5 80.5 M 49.5 70.5 L 53.5 70.5 M 49.5 59.5 L 53.5 59.5 M 49.5 48.5 L 53.5 48.5 M 49.5 37.5 L 53.5 37.5 M 49.5 27.5 L 53.5 27.5 M 49.5 16.5 L 53.5 16.5 M 49.5 5.5 L 53.5 5.5" stroke-opacity="1" stroke-linejoin="bevel" stroke-miterlimit="10" stroke-dasharray=""/><text fill="rgb(68,68,68)" stroke="none" font-family="helvetica" font-size="13.5px" font-style="normal" font-weight="normal" text-decoration="normal" x="34.5" y="387" text-anchor="start" dominant-baseline="alphabetic" transform="matrix(1, 0, 0, 1, 0.5, 0.5)" fill-opacity="1">0</text><text fill="rgb(68,68,68)" stroke="none" font-family="helvetica" font-size="13.5px" font-style="normal" font-weight="normal" text-decoration="normal" x="34.5" y="333.1428527832031" text-anchor="start" dominant-baseline="alphabetic" transform="matrix(1, 0, 0, 1, 0.5, 0.5)" fill-opacity="1">2</text><text fill="rgb(68,68,68)" stroke="none" font-family="helvetica" font-size="13.5px" font-style="normal" font-weight="normal" text-decoration="normal" x="34.5" y="279.28570556640625" text-anchor="start" dominant-baseline="alphabetic" transform="matrix(1, 0, 0, 1, 0.5, 0.5)" fill-opacity="1">4</text><text fill="rgb(68,68,68)" stroke="none" font-family="helvetica" font-size="13.5px" font-style="normal" font-weight="normal" text-decoration="normal" x="34.5" y="225.42857360839844" text-anchor="start" dominant-baseline="alphabetic" transform="matrix(1, 0, 0, 1, 0.5, 0.5)" fill-opacity="1">6</text><text fill="rgb(68,68,68)" stroke="none" font-family="helvetica" font-size="13.5px" font-style="normal" font-weight="normal" text-decoration="normal" x="34.5" y="171.57142639160156" text-anchor="start" dominant-baseline="alphabetic" transform="matrix(1, 0, 0, 1, 0.5, 0.5)" fill-opacity="1">8</text><text fill="rgb(68,68,68)" stroke="none" font-family="helvetica" font-size="13.5px" font-style="normal" font-weight="normal" text-decoration="normal" x="27" y="117.71428680419922" text-anchor="start" dominant-baseline="alphabetic" transform="matrix(1, 0, 0, 1, 0.5, 0.5)" fill-opacity="1">10</text><text fill="rgb(68,68,68)" stroke="none" font-family="helvetica" font-size="13.5px" font-style="normal" font-weight="normal" text-decoration="normal" x="27" y="63.85714340209961" text-anchor="start" dominant-baseline="alphabetic" transform="matrix(1, 0, 0, 1, 0.5, 0.5)" fill-opacity="1">12</text><text fill="rgb(68,68,68)" stroke="none" font-family="helvetica" font-size="13.5px" font-style="normal" font-weight="normal" text-decoration="normal" x="27" y="10" text-anchor="start" dominant-baseline="alphabetic" transform="matrix(1, 0, 0, 1, 0.5, 0.5)" fill-opacity="1">14</text><text fill="rgb(68,68,68)" stroke="none" font-family="helvetica" font-size="13px" font-style="normal" font-weight="normal" text-decoration="normal" x="-118.60833740234375" y="190.5" text-anchor="start" dominant-baseline="alphabetic" transform="matrix(6.123233995736766e-17, -1, 1, 6.123233995736766e-17, -174, 213)" fill-opacity="1">Number of MRIs in the vessel percentage range</text><path fill="rgb(255,255,255)" stroke="rgb(229,229,229)" paint-order="fill" d="M 424.2333297729492 15.5 L 585.5 15.5 L 585.5 55.5 L 424.2333297729492 55.5 L 424.2333297729492 15.5" fill-opacity="0.9490196078431372" clip-path="url(#zSoqrgVXWldK)" stroke-opacity="0.5019607843137255" stroke-linejoin="bevel" stroke-miterlimit="10" stroke-dasharray=""/><g clip-path="url(#zSoqrgVXWldK)"><text fill="rgb(68,68,68)" stroke="none" font-family="helvetica" font-size="16px" font-style="normal" font-weight="normal" text-decoration="normal" x="458.7333297729492" y="35" text-anchor="start" dominant-baseline="central" transform="matrix(1, 0, 0, 1, 0.5, 0.5)" fill-opacity="1">Fold 1</text></g><path fill="rgb(200,231,255)" stroke="rgb(200,231,255)" paint-order="fill" d="M 436.2333297729492 27.5 L 452.2333297729492 27.5 L 452.2333297729492 43.5 L 436.2333297729492 43.5 L 436.2333297729492 27.5" fill-opacity="1" clip-path="url(#zSoqrgVXWldK)" stroke-opacity="1" stroke-linejoin="bevel" stroke-miterlimit="10" stroke-dasharray=""/><g clip-path="url(#zSoqrgVXWldK)"><text fill="rgb(68,68,68)" stroke="none" font-family="helvetica" font-size="16px" font-style="normal" font-weight="normal" text-decoration="normal" x="530.8666648864746" y="35" text-anchor="start" dominant-baseline="central" transform="matrix(1, 0, 0, 1, 0.5, 0.5)" fill-opacity="1">Fold 2</text></g><path fill="rgb(222,170,255)" stroke="rgb(222,170,255)" paint-order="fill" d="M 508.3666648864746 27.5 L 524.3666648864746 27.5 L 524.3666648864746 43.5 L 508.3666648864746 43.5 L 508.3666648864746 27.5" fill-opacity="1" clip-path="url(#zSoqrgVXWldK)" stroke-opacity="1" stroke-linejoin="bevel" stroke-miterlimit="10" stroke-dasharray=""/></svg>